<svg width="23" height="29" viewBox="0 0 23 29" fill="none" xmlns="http://www.w3.org/2000/svg">
<path fill-rule="evenodd" clip-rule="evenodd" d="M11.842 28.0942C13.4268 28.0942 14.7235 26.7975 14.7235 25.2127H8.96059C8.96059 26.7975 10.2428 28.0942 11.842 28.0942ZM20.4865 19.4498V12.2462C20.4865 7.82315 18.1237 4.12048 14.0033 3.14079V2.16109C14.0033 0.965288 13.038 0 11.8422 0C10.6464 0 9.68107 0.965288 9.68107 2.16109V3.14079C5.54618 4.12048 3.19779 7.80875 3.19779 12.2462V19.4498L1.33925 21.3084C0.431594 22.216 1.06551 23.772 2.34776 23.772H21.3221C22.6044 23.772 23.2527 22.216 22.3451 21.3084L20.4865 19.4498Z" fill="#C3CAD9"/>
</svg>
