<svg width="333" height="333" viewBox="0 0 333 333" fill="none" xmlns="http://www.w3.org/2000/svg">
<path d="M293.809 272.265C310.818 251.8 322.648 227.54 328.298 201.536C333.948 175.532 333.252 148.55 326.268 122.873C319.285 97.1948 306.22 73.5766 288.179 54.0161C270.137 34.4555 247.65 19.528 222.619 10.4963C197.588 1.46462 170.75 -1.40554 144.375 2.12863C118.001 5.66281 92.8653 15.4973 71.0953 30.8003C49.3252 46.1032 31.5612 66.4244 19.3058 90.0447C7.05041 113.665 0.664256 139.89 0.687564 166.5C0.696508 205.184 14.3285 242.629 39.1916 272.265L38.9547 272.466C39.7838 273.461 40.7313 274.314 41.584 275.297C42.65 276.517 43.7988 277.665 44.9003 278.85C48.2165 282.45 51.6275 285.909 55.2043 289.154C56.294 290.149 57.4191 291.073 58.5206 292.02C62.3106 295.289 66.2072 298.392 70.2459 301.282C70.767 301.637 71.2408 302.099 71.7619 302.466V302.324C99.5012 321.845 132.593 332.321 166.512 332.321C200.431 332.321 233.523 321.845 261.262 302.324V302.466C261.783 302.099 262.245 301.637 262.778 301.282C266.805 298.38 270.713 295.289 274.503 292.02C275.605 291.073 276.73 290.137 277.819 289.154C281.396 285.897 284.807 282.45 288.124 278.85C289.225 277.665 290.362 276.517 291.44 275.297C292.281 274.314 293.24 273.461 294.069 272.454L293.809 272.265ZM166.5 71.75C177.041 71.75 187.346 74.8758 196.11 80.7321C204.875 86.5885 211.706 94.9123 215.74 104.651C219.774 114.39 220.829 125.106 218.773 135.445C216.716 145.783 211.64 155.28 204.187 162.733C196.733 170.187 187.236 175.263 176.898 177.32C166.559 179.376 155.843 178.321 146.104 174.287C136.366 170.253 128.042 163.422 122.185 154.657C116.329 145.892 113.203 135.588 113.203 125.047C113.203 110.912 118.818 97.3554 128.813 87.3603C138.809 77.3652 152.365 71.75 166.5 71.75ZM71.833 272.265C72.0384 256.713 78.3583 241.868 89.4252 230.941C100.492 220.014 115.416 213.883 130.969 213.875H202.031C217.584 213.883 232.508 220.014 243.575 230.941C254.642 241.868 260.962 256.713 261.167 272.265C235.192 295.672 201.466 308.626 166.5 308.626C131.534 308.626 97.8082 295.672 71.833 272.265Z" fill="#4E89FC" fill-opacity="0.8"/>
</svg>
